# xmcd
#
# Track frame offsets: 
#        150
#        8257
#        16882
#        22492
#        31507
#        38842
#        42682
#        45269
#        54156
#        65586
#        72831
#        82206
#        96628
#        103988
#        109140
#        120210
#        129502
#        139886
#
# Disc length: 2112 seconds
#
# Revision: 0
# Processed by: cddbd v1.5.2PL0 Copyright (c) Steve Scherf et al.
# Submitted via: ExactAudioCopy v0.99pb4
#
DISCID=f1083e12
DTITLE=Adrenicide - Power Shift
DYEAR=2011
DGENRE=Crossover
TTITLE0=Global Death Plot
TTITLE1=Hate You, Fuck You!
TTITLE2=Meltdown
TTITLE3=Halo of Shit
TTITLE4=Aggravation
TTITLE5=Short As Fuck
TTITLE6=I Forgot To Flush
TTITLE7=Metal Fucking Metal
TTITLE8=Rage Erupts
TTITLE9=Vomitarium
TTITLE10=Dust Devil
TTITLE11=Vatos Locos
TTITLE12=Intrumental
TTITLE13=Kill Your Neighbors
TTITLE14=Fear As A Weapon
TTITLE15=Statue of Bigotry
TTITLE16=Dead From Above
TTITLE17=Untitled
EXTD=
EXTT0=
EXTT1=
EXTT2=
EXTT3=
EXTT4=
EXTT5=
EXTT6=
EXTT7=
EXTT8=
EXTT9=
EXTT10=
EXTT11=
EXTT12=
EXTT13=
EXTT14=
EXTT15=
EXTT16=
EXTT17=
PLAYORDER=
